<svg width="13" height="16" viewBox="0 0 13 16" fill="none" xmlns="http://www.w3.org/2000/svg">
    <path d="M12.4245 3.39286C12.5825 3.55952 12.7179 3.78571 12.8307 4.07143C12.9436 4.35714 13 4.61905 13 4.85714V15.1429C13 15.381 12.921 15.5833 12.763 15.75C12.605 15.9167 12.4132 16 12.1875 16H0.8125C0.586804 16 0.394966 15.9167 0.236979 15.75C0.0789922 15.5833 0 15.381 0 15.1429V0.857143C0 0.619046 0.0789922 0.416668 0.236979 0.25C0.394966 0.0833324 0.586804 0 0.8125 0H8.39583C8.62153 0 8.86979 0.0595232 9.14062 0.178571C9.41146 0.29762 9.62587 0.440475 9.78385 0.607143L12.4245 3.39286ZM8.66667 1.21429V4.57143H11.849C11.7925 4.39881 11.7305 4.27679 11.6628 4.20536L9.01367 1.41071C8.94596 1.33929 8.8303 1.27381 8.66667 1.21429ZM11.9167 14.8571V5.71429H8.39583C8.17014 5.71429 7.9783 5.63095 7.82031 5.46429C7.66233 5.29762 7.58333 5.09524 7.58333 4.85714V1.14286H1.08333V14.8571H11.9167ZM3.25 7.14286C3.25 7.05952 3.27539 6.99107 3.32617 6.9375C3.37695 6.88393 3.44184 6.85714 3.52083 6.85714H9.47917C9.55816 6.85714 9.62305 6.88393 9.67383 6.9375C9.72461 6.99107 9.75 7.05952 9.75 7.14286V7.71429C9.75 7.79762 9.72461 7.86607 9.67383 7.91964C9.62305 7.97322 9.55816 8 9.47917 8H3.52083C3.44184 8 3.37695 7.97322 3.32617 7.91964C3.27539 7.86607 3.25 7.79762 3.25 7.71429V7.14286ZM9.47917 9.14286C9.55816 9.14286 9.62305 9.16964 9.67383 9.22321C9.72461 9.27679 9.75 9.34524 9.75 9.42857V10C9.75 10.0833 9.72461 10.1518 9.67383 10.2054C9.62305 10.2589 9.55816 10.2857 9.47917 10.2857H3.52083C3.44184 10.2857 3.37695 10.2589 3.32617 10.2054C3.27539 10.1518 3.25 10.0833 3.25 10V9.42857C3.25 9.34524 3.27539 9.27679 3.32617 9.22321C3.37695 9.16964 3.44184 9.14286 3.52083 9.14286H9.47917ZM9.47917 11.4286C9.55816 11.4286 9.62305 11.4554 9.67383 11.5089C9.72461 11.5625 9.75 11.631 9.75 11.7143V12.2857C9.75 12.369 9.72461 12.4375 9.67383 12.4911C9.62305 12.5446 9.55816 12.5714 9.47917 12.5714H3.52083C3.44184 12.5714 3.37695 12.5446 3.32617 12.4911C3.27539 12.4375 3.25 12.369 3.25 12.2857V11.7143C3.25 11.631 3.27539 11.5625 3.32617 11.5089C3.37695 11.4554 3.44184 11.4286 3.52083 11.4286H9.47917Z" fill="white"/>
</svg> 